<?xml version="1.0" encoding="UTF-8" standalone="no"?>
<!-- Created with Inkscape (http://www.inkscape.org/) -->

<svg
   version="1.1"
   id="svg1"
   width="1024"
   height="1024"
   viewBox="0 0 1024 1024"
   xmlns="http://www.w3.org/2000/svg"
   xmlns:svg="http://www.w3.org/2000/svg">
  <defs
     id="defs1">
    <rect
       x="872.93443"
       y="635.0187"
       width="17.302962"
       height="70.942144"
       id="rect31" />
  </defs>
  <g
     id="g1">
    <path
       style="fill:#000000"
       d="m 646.72077,485.31291 -0.27555,-57.21218 4.17047,-0.13743 c 4.65352,-0.1533 33.49086,0.31714 34.38876,0.561 0.31526,0.0862 0.69688,25.85784 0.84792,57.27161 l 0.27465,57.11586 -5.2155,-0.0853 c -2.86851,-0.0468 -11.383,-0.0553 -18.92087,-0.0183 -7.53794,0.037 -13.99534,-0.0116 -14.34984,-0.10795 -0.35443,-0.0959 -0.76847,-25.92049 -0.92,-57.38718 z"
       id="path29" />
    <path
       style="fill:#000000"
       d="m 646.82755,593.40438 c 0.33767,-1.88073 0.54806,-11.18377 0.46758,-20.67343 l -0.14637,-17.25391 22.1597,0.36169 c 29.28034,0.47783 42.59084,0.0345 50.94208,-1.69677 18.56147,-3.84793 32.40399,-15.43036 43.45792,-36.36227 5.44269,-10.30637 7.86541,-18.44988 8.99775,-30.24417 1.71808,-17.89462 -1.69355,-34.64405 -9.81701,-48.19192 -4.54796,-7.58505 -8.82581,-12.0692 -16.36842,-17.15763 -7.61239,-5.1355 -17.77742,-7.00721 -38.14326,-7.02339 -43.34368,-0.0343 -54.78563,-0.14836 -55.12986,-0.54927 -0.20571,-0.23955 1.90832,-4.899 4.69783,-10.35432 2.78953,-5.45535 7.32195,-14.36259 10.07212,-19.79392 l 5.00023,-9.87515 6.27354,-0.16143 c 11.2994,-0.29073 48.88263,-0.0688 55.81829,0.32959 29.39857,1.68879 57.20979,23.76333 69.91973,55.49733 3.57843,8.93459 6.82865,21.44781 8.09229,31.15485 5.72631,43.98989 -13.01937,90.15781 -46.59714,114.76237 -19.39915,14.21495 -37.33566,19.60323 -67.89296,20.39554 -17.83236,0.4624 -50.61617,0.74512 -51.71732,0.44605 -0.38537,-0.10582 -0.42386,-1.72906 -0.0863,-3.60976 z"
       id="path28" />
    <path
       style="fill:#000000"
       d="m 555.65082,545.58251 -0.62646,-51.84605 -8.51244,-16.46864 c -12.57847,-24.33505 -30.96467,-59.48036 -42.9617,-82.12163 -5.81656,-10.97725 -10.18628,-20.17769 -9.71047,-20.44557 0.47575,-0.26783 10.01169,-0.45295 21.19098,-0.41145 19.69532,0.0731 20.37548,0.14494 21.9239,2.31448 0.87896,1.23145 9.4506,18.00444 19.04815,37.27329 9.59757,19.26888 17.79156,35.12705 18.20894,35.24042 0.41735,0.11373 2.05269,-2.34736 3.63414,-5.46823 2.87517,-5.67399 7.74428,-15.00406 25.46257,-48.79082 5.19109,-9.89877 9.69487,-18.58959 10.00831,-19.31299 0.37234,-0.85907 8.11666,-1.32779 22.32878,-1.35146 11.96733,-0.0199 22.326,0.12001 23.01935,0.3111 1.54278,0.42479 0.90019,1.6721 -26.58198,51.59955 -11.83784,21.5061 -25.12428,45.65511 -29.52542,53.66444 l -8.00202,14.56249 0.0657,51.42272 c 0.0362,28.28251 -0.14647,51.56083 -0.40582,51.72969 -0.81521,0.53072 -30.4499,0.87596 -34.2834,0.39938 l -3.65467,-0.45456 z"
       id="path27" />
    <path
       style="fill:#000000"
       d="m 358.26149,557.82159 c -0.2359,-24.78549 -0.82264,-45.17147 -1.30387,-45.30218 -0.4812,-0.1309 -17.4959,-0.29446 -37.81039,-0.36404 -49.2791,-0.16863 -49.8696,-0.20777 -62.82093,-4.16384 -13.13577,-4.01247 -20.0928,-8.55459 -27.38071,-17.87639 -8.83374,-11.29907 -12.6689,-22.92299 -12.79974,-38.79457 -0.25547,-30.98416 19.72893,-59.06991 51.16229,-71.90267 11.40058,-4.65436 23.0754,-5.73815 57.39479,-5.32814 9.179,0.10965 28.65687,0.19665 43.28425,0.19348 48.27898,-0.0107 73.40463,0.52595 81.93374,1.74998 11.01471,1.58076 21.00893,5.77456 30.89715,12.96499 9.62686,7.00045 15.78189,14.4408 21.07159,25.47189 17.38261,36.24944 3.39386,77.38795 -31.94069,93.93224 -12.81174,5.99862 -21.06439,7.01696 -58.11696,7.17132 -1.70042,0.007 -1.83911,-1.46666 -2.0304,-21.56583 -0.18766,-19.71929 -0.0485,-21.57307 1.6199,-21.56898 1.00371,0.002 8.63104,0.0717 16.94934,0.1539 23.83459,0.2356 30.70151,-2.20738 37.59726,-13.37565 7.19933,-11.65984 3.54024,-28.47554 -8.05332,-37.01001 -7.3362,-5.40042 -15.55295,-6.49058 -48.85822,-6.48211 -30.77768,0.008 -66.95387,-0.1122 -89.69646,-0.2976 -18.94612,-0.15444 -29.9232,0.20879 -34.90672,1.15512 -5.2847,1.00352 -16.23276,7.70174 -20.16362,12.3365 -4.73344,5.58103 -8.60893,16.45637 -7.85938,22.05505 1.73351,12.94922 10.02348,19.19189 26.28114,19.7907 7.76248,0.28592 60.83297,0.98327 90.52685,1.1895 11.84248,0.0823 22.05555,0.29183 22.69575,0.46542 0.8462,0.23009 1.26061,18.15418 1.51782,65.64656 l 0.3538,65.33043 -17.72833,0.19081 c -9.75057,0.10496 -18.55158,-0.01 -19.55767,-0.25541 -1.71718,-0.41858 -1.85576,-3.21201 -2.25832,-45.51078 z"
       id="path25" />
    <path
       style="fill:#000000"
       d="m 240.24926,595.90671 c -10.82751,-5.05094 -24.78664,-16.17553 -30.20607,-24.07238 l -2.74373,-3.99797 13.58593,-15.55277 c 7.47226,-8.55401 14.07242,-15.44319 14.66706,-15.30918 0.59463,0.13417 1.8689,1.64107 2.83178,3.34904 2.91444,5.16993 9.55183,12.58629 14.00028,15.64333 8.59359,5.90566 16.46014,6.93477 52.73457,6.89871 16.54248,-0.0164 32.06444,-0.002 38.87114,0.0368 1.73153,0.0101 1.84078,1.27585 1.75825,20.35731 l -0.0881,20.3468 -31.28473,0.39307 c -37.2935,0.46858 -47.68336,-0.23968 -61.73787,-4.20855 -5.66129,-1.59875 -11.23616,-3.3466 -12.38849,-3.88416 z"
       id="path24" />
    <g
       id="g33"
       transform="matrix(0.44681014,0,0,0.33587087,193.10532,303.03024)">
      <path
         style="fill:#000000"
         d="m 620.4628,777.03074 -0.27555,-57.21218 4.17047,-0.13743 c 4.65352,-0.1533 33.49086,0.31714 34.38876,0.561 0.31526,0.0862 0.69688,25.85784 0.84792,57.27161 l 0.27465,57.11586 -5.2155,-0.0853 c -2.86851,-0.0468 -11.383,-0.0553 -18.92087,-0.0183 -7.53794,0.037 -13.99534,-0.0116 -14.34984,-0.10795 -0.35443,-0.0959 -0.76847,-25.92049 -0.92,-57.38718 z"
         id="path29-5" />
      <path
         style="fill:#000000"
         d="m 620.56958,885.12221 c 0.33767,-1.88073 0.54806,-11.18377 0.46758,-20.67343 l -0.14637,-17.25391 22.1597,0.36169 c 29.28034,0.47783 42.59084,0.0345 50.94208,-1.69677 18.56147,-3.84793 32.40399,-15.43036 43.45792,-36.36227 5.44269,-10.30637 7.86541,-18.44988 8.99775,-30.24417 1.71808,-17.89462 -1.69355,-34.64405 -9.81701,-48.19192 -4.54796,-7.58505 -8.82581,-12.0692 -16.36842,-17.15763 -7.61239,-5.1355 -17.77742,-7.00721 -38.14326,-7.02339 -43.34368,-0.0343 -54.78563,-0.14836 -55.12986,-0.54927 -0.20571,-0.23955 1.90832,-4.899 4.69783,-10.35432 2.78953,-5.45535 7.32195,-14.36259 10.07212,-19.79392 l 5.00023,-9.87515 6.27354,-0.16143 c 11.2994,-0.29073 48.88263,-0.0688 55.81829,0.32959 29.39857,1.68879 57.20979,23.76333 69.91973,55.49733 3.57843,8.93459 6.82865,21.44781 8.09229,31.15485 5.72631,43.98989 -13.01937,90.15781 -46.59714,114.76237 -19.39915,14.21495 -37.33566,19.60323 -67.89296,20.39554 -17.83236,0.4624 -50.61617,0.74512 -51.71732,0.44605 -0.38537,-0.10582 -0.42386,-1.72906 -0.0863,-3.60976 z"
         id="path28-0" />
      <path
         style="fill:#000000"
         d="m 495.98295,666.39174 c 28.54366,0.19758 44.77828,0.72775 51.26172,1.65821 11.01469,1.58075 21.01024,5.77443 30.89844,12.96484 9.62684,7.00043 15.78062,14.43964 21.07031,25.4707 10.4273,21.74495 9.55421,45.24288 -0.43164,64.14258 -6.7215,-11.10701 -16.73346,-20.38848 -29.58594,-26.40625 -0.94449,-0.44222 -1.83779,-0.80364 -2.74609,-1.19336 2.0467,-10.38208 -2.13811,-22.12582 -11.21094,-28.80469 -7.33619,-5.40041 -15.55222,-6.49042 -48.85742,-6.48242 -3.568,9e-4 -6.71468,-0.0332 -10.39844,-0.0352 z"
         id="path25-0" />
      <path
         style="fill:#000000"
         d="m 491.5457,848.76032 c 3.68376,-0.002 6.83044,-0.0361 10.39844,-0.0352 33.30523,0.008 41.52122,-1.08201 48.85742,-6.48243 11.59355,-8.53446 15.25401,-25.34993 8.05469,-37.00976 -6.89575,-11.16826 -13.7631,-13.6106 -37.59766,-13.375 -8.31829,0.0822 -15.94551,0.1523 -16.94922,0.1543 -1.6684,0.004 -1.80875,-1.85105 -1.62109,-21.57032 0.19129,-20.09915 0.33083,-21.57145 2.03125,-21.56445 37.05253,0.15436 45.30546,1.17131 58.11718,7.16992 35.33452,16.54428 49.32205,57.68419 31.93946,93.9336 -5.2897,11.03107 -11.44347,18.47026 -21.07032,25.4707 -9.88821,7.19042 -19.88373,11.38408 -30.89843,12.96484 -6.48345,0.93046 -22.71803,1.46063 -51.26172,1.65821 z"
         id="path25-0-7-1" />
    </g>
    <text
       xml:space="preserve"
       style="font-size:64px;font-family:Trattatello;-inkscape-font-specification:'Trattatello, Normal';fill:#800000;stroke:#000000;stroke-opacity:1"
       x="859.95721"
       y="619.44604"
       id="text29"><tspan
         id="tspan29"></tspan></text>
    <text
       xml:space="preserve"
       style="font-size:64px;font-family:Trattatello;-inkscape-font-specification:'Trattatello, Normal';fill:#800000;stroke:#000000;stroke-opacity:1"
       x="858.22693"
       y="602.14307"
       id="text30"><tspan
         id="tspan30"
         x="858.22693"
         y="602.14307" /></text>
    <text
       xml:space="preserve"
       id="text31"
       style="font-size:64px;font-family:Trattatello;-inkscape-font-specification:'Trattatello, Normal';white-space:pre;shape-inside:url(#rect31);display:inline;fill:#800000;stroke:#000000;stroke-opacity:1" />
  </g>
</svg>
